# xmcd
#
# Track frame offsets: 
#        150
#        20564
#        36339
#        55753
#        77242
#        94197
#        113938
#        129642
#        149701
#        166723
#        201702
#        225722
#        250798
#
# Disc length: 3619 seconds
#
# Revision: 0
# Processed by: cddbd v1.5PL3 Copyright (c) Steve Scherf et al.
# Submitted via: ExactAudioCopy v0.95a5
#
DISCID=bb0e210d
DTITLE=Bobby Rush - Live at Ground Zero
DYEAR=2003
DGENRE=Blues
TTITLE0=She's So Fine
TTITLE1=Evil
TTITLE2=You, You, You
TTITLE3=Medley: What's Good For The Goose - Man Can Give It
TTITLE4=I Ain't Studdin' You
TTITLE5=Crazy 'Bout You
TTITLE6=99 (Instrumental)
TTITLE7=Tough Titty
TTITLE8=Everybody Knows Who I Am
TTITLE9=Young Tenderoni
TTITLE10=Chicken Heads
TTITLE11=Sue
TTITLE12=That Thang
EXTD=
EXTT0=
EXTT1=
EXTT2=
EXTT3=
EXTT4=
EXTT5=
EXTT6=
EXTT7=
EXTT8=
EXTT9=
EXTT10=
EXTT11=
EXTT12=
PLAYORDER=
